<svg
   [attr.width]="sideSize"
   [attr.height]="sideSize"
   viewBox="0 0 501.74905 501.74942"
   version="1.1"
   id="svg5"
   xmlns="http://www.w3.org/2000/svg"
   xmlns:svg="http://www.w3.org/2000/svg">
  <defs
     id="defs2" />
  <g
     id="layer1"
     style="display:inline;stroke-width:8;stroke-dasharray:none"
     transform="translate(-5.1255512,-5.1251822)">
    <circle
       style="display:none;fill:none;fill-opacity:1;stroke-width:8;stroke-dasharray:none;stroke-opacity:1"
       id="path696"
       cx="256"
       cy="256"
       r="196.68916" />
    <path
       style="display:none;fill:none;fill-opacity:1;stroke-width:8;stroke-dasharray:none;stroke-opacity:1"
       d="M 256,256 V 59.310837"
       id="path1620" />
    <path
       style="display:none;fill:none;fill-opacity:1;stroke-width:8;stroke-dasharray:none;stroke-opacity:1"
       d="M 256,256 395.08024,116.91976"
       id="path1622" />
    <path
       style="display:none;fill:none;fill-opacity:1;stroke-width:8;stroke-dasharray:none;stroke-opacity:1"
       d="M 256,256 H 452.68916"
       id="path1624" />
    <path
       style="display:none;fill:none;fill-opacity:1;stroke-width:8;stroke-dasharray:none;stroke-opacity:1"
       d="M 256,256 395.08024,395.08024"
       id="path1626" />
    <path
       style="display:none;fill:none;fill-opacity:1;stroke-width:8;stroke-dasharray:none;stroke-opacity:1"
       d="M 256,256 117.08499,117.08499"
       id="path1628" />
    <path
       style="display:none;fill:none;fill-opacity:1;stroke-width:8;stroke-dasharray:none;stroke-opacity:1"
       d="M 59.310837,256 H 256 L 116.91976,395.08024"
       id="path1630" />
    <path
       style="display:none;fill:none;fill-opacity:1;stroke:#eeeeee;stroke-width:30;stroke-dasharray:none;stroke-opacity:1"
       d="m 255.57033,408.50403 c -14.95548,0.008 -29.63887,4.0375 -43.66075,9.23876 -14.02188,5.20126 -27.583,11.59658 -41.6678,16.62497 -14.0848,5.02838 -28.89606,8.69955 -43.84166,8.15619 -14.94561,-0.54336 -30.120004,-5.65391 -40.72544,-16.19863 -10.66466,-10.6036 -15.857239,-25.85701 -16.426769,-40.88522 -0.569529,-15.02821 3.12347,-29.92548 8.189632,-44.08547 5.066161,-14.15999 11.515086,-27.78885 16.7585,-41.88417 5.243413,-14.09532 9.303537,-28.86114 9.299927,-43.90013 -0.004,-14.93847 -4.016686,-29.60731 -9.198314,-43.61833 -5.181629,-14.01102 -11.553525,-27.56422 -16.559829,-41.63884 -5.006304,-14.07462 -8.656438,-28.87269 -8.100641,-43.80082 0.555798,-14.92813 5.668795,-30.080251 16.202724,-40.672433 10.592483,-10.65106 25.82403,-15.842608 40.83436,-16.422081 15.01033,-0.579474 29.89335,3.094093 44.04251,8.138615 14.14915,5.044523 27.76989,11.469398 41.85461,16.691133 14.08471,5.221735 28.83678,9.262316 43.85828,9.248396 14.95593,-0.0139 29.63851,-4.046428 43.66014,-9.249669 14.02164,-5.203241 27.58299,-11.599125 41.66844,-16.627029 14.08546,-5.027904 28.89775,-8.697452 43.84373,-8.151652 14.94597,0.545801 30.11991,5.659681 40.72334,16.20706 10.66199,10.605631 15.85121,25.85951 16.41827,40.88735 0.56706,15.02784 -3.12759,29.92406 -8.19425,44.08338 -5.06666,14.15933 -11.51502,27.78795 -16.75643,41.88352 -5.24142,14.09557 -9.29801,28.86221 -9.28888,43.90074 0.009,14.95567 4.03892,29.63906 9.24081,43.66092 5.20188,14.02185 11.59772,27.58295 16.62635,41.66787 5.02864,14.08492 8.69976,28.89647 8.15583,43.84225 -0.54392,14.94578 -5.65567,30.1202 -16.2017,40.72461 -10.6046,10.6633 -25.8585,15.85372 -40.88652,16.42134 -15.02801,0.56763 -29.92453,-3.12697 -44.08397,-8.19388 -14.15945,-5.0669 -27.78804,-11.51578 -41.88359,-16.75782 -14.09554,-5.24204 -28.86218,-9.2994 -43.90091,-9.29093 z"
       id="path1989-1" />
    <path
       style="display:none;fill:none;fill-opacity:1;stroke:#eeeeee;stroke-width:30;stroke-dasharray:none;stroke-opacity:1"
       d="m 256.42967,496.8743 c -15.02313,0.052 -29.47068,-7.03954 -40.50167,-17.23828 -11.03099,-10.19875 -18.9659,-23.31697 -25.41388,-36.88608 -6.44798,-13.5691 -11.54787,-27.74116 -17.82894,-41.38833 -6.28108,-13.64718 -13.87201,-26.9288 -24.52034,-37.52645 -10.6125,-10.56199 -23.87701,-18.07504 -37.49995,-24.28764 C 97.041959,333.33491 82.902124,328.29599 69.357949,321.91351 55.813774,315.53102 42.71409,307.66793 32.505238,296.7153 22.296386,285.76267 15.162405,271.40229 15.1257,256.42967 c -0.03683,-15.02559 7.077451,-29.46685 17.295913,-40.48287 10.218461,-11.01602 23.353341,-18.92851 36.935694,-25.35419 13.582353,-6.42568 27.765022,-11.50343 41.422223,-17.76847 13.65719,-6.26503 26.94876,-13.84644 37.55054,-24.49407 10.56473,-10.61042 18.07381,-23.87941 24.27519,-37.50796 6.20138,-13.628557 11.22218,-27.775359 17.58331,-41.330091 6.36112,-13.554732 14.19936,-26.669199 25.13156,-36.900606 10.93219,-10.231408 25.27723,-17.396641 40.2502,-17.465713 15.02511,-0.06931 29.48169,7.013579 40.51817,17.209404 11.03648,10.195825 18.97387,23.315895 25.42095,36.887701 6.44707,13.571806 11.54295,27.74755 17.81921,41.399195 6.27625,13.65164 13.86161,26.93883 24.5065,37.54284 10.60619,10.56545 23.86518,18.08408 37.48369,24.30149 13.6185,6.21742 27.75469,11.26034 41.29619,17.64375 13.54149,6.3834 26.63934,14.24402 36.85107,25.19118 10.21174,10.94717 17.35428,25.29853 17.40819,40.26907 0.0541,15.02341 -7.03574,29.47225 -17.23355,40.5045 -10.19781,11.03226 -23.31576,18.96835 -36.88494,25.41686 -13.56918,6.4485 -27.7416,11.54824 -41.38955,17.82831 -13.64795,6.28007 -26.93079,13.86907 -37.5311,24.51516 -10.56321,10.60883 -18.07991,23.86901 -24.29633,37.48829 -6.21642,13.61928 -11.25919,27.75582 -17.6431,41.2974 -6.38392,13.54157 -14.24573,26.63915 -25.19415,36.84997 -10.94842,10.21081 -25.30107,17.35166 -40.27191,17.40348 z"
       id="path1993-8" />
    <path
       style="display:inline;fill:none;fill-opacity:1;stroke-width:20;stroke-dasharray:none;stroke-opacity:1"
       d="m 255.57033,408.50403 c -14.95548,0.008 -29.63887,4.0375 -43.66075,9.23876 -14.02188,5.20126 -27.583,11.59658 -41.6678,16.62497 -14.0848,5.02838 -28.89606,8.69955 -43.84166,8.15619 -14.94561,-0.54336 -30.120004,-5.65391 -40.72544,-16.19863 -10.66466,-10.6036 -15.857239,-25.85701 -16.426768,-40.88522 -0.569529,-15.02821 3.12347,-29.92548 8.189631,-44.08547 5.066161,-14.15999 11.515086,-27.78885 16.7585,-41.88417 5.243414,-14.09531 9.303537,-28.86114 9.299927,-43.90013 -0.004,-14.93847 -4.016686,-29.60731 -9.198315,-43.61833 -5.181629,-14.01102 -11.553526,-27.56422 -16.55983,-41.63884 -5.006305,-14.07462 -8.65644,-28.87269 -8.100643,-43.80082 0.555797,-14.92813 5.668793,-30.08025 16.202722,-40.672433 10.592483,-10.651061 25.824026,-15.842609 40.834356,-16.422083 15.01033,-0.579474 29.89336,3.094094 44.04251,8.138616 14.14916,5.044522 27.7699,11.469398 41.85461,16.691134 14.08472,5.221735 28.83679,9.262316 43.85829,9.248396 14.95593,-0.0139 29.63851,-4.046428 43.66014,-9.249669 14.02164,-5.203241 27.58299,-11.599125 41.66844,-16.627029 14.08546,-5.027904 28.89775,-8.697452 43.84373,-8.151652 14.94597,0.545801 30.11991,5.659681 40.72334,16.20706 10.66199,10.605631 15.85121,25.85951 16.41827,40.88735 0.56706,15.02784 -3.12759,29.92406 -8.19425,44.08338 -5.06666,14.15933 -11.51502,27.78795 -16.75643,41.88352 -5.24142,14.09557 -9.29801,28.86221 -9.28888,43.90074 0.009,14.95567 4.03892,29.63906 9.24081,43.66092 5.20188,14.02185 11.59772,27.58295 16.62635,41.66787 5.02864,14.08492 8.69976,28.89647 8.15583,43.84225 -0.54392,14.94578 -5.65567,30.1202 -16.2017,40.72461 -10.6046,10.6633 -25.8585,15.85372 -40.88652,16.42134 -15.02801,0.56763 -29.92453,-3.12697 -44.08397,-8.19388 -14.15945,-5.0669 -27.78804,-11.51578 -41.88359,-16.75782 -14.09554,-5.24204 -28.86218,-9.2994 -43.90091,-9.29093 z"
       id="path1989" />
    <path
       style="display:inline;fill:none;fill-opacity:1;stroke-width:20;stroke-dasharray:none;stroke-opacity:1"
       d="m 256.42967,496.8743 c -15.02313,0.052 -29.47068,-7.03954 -40.50167,-17.23828 -11.03099,-10.19875 -18.9659,-23.31697 -25.41388,-36.88608 -6.44798,-13.5691 -11.54787,-27.74116 -17.82894,-41.38833 -6.28108,-13.64718 -13.87201,-26.9288 -24.52034,-37.52645 -10.6125,-10.56199 -23.87701,-18.07504 -37.49995,-24.28764 C 97.041958,333.33491 82.902123,328.29599 69.357948,321.91351 55.813773,315.53102 42.714088,307.66793 32.505236,296.7153 22.296384,285.76267 15.162403,271.40229 15.125698,256.42967 c -0.03683,-15.02559 7.077452,-29.46685 17.295913,-40.48287 10.218461,-11.01602 23.353341,-18.92851 36.935695,-25.35419 13.582353,-6.42568 27.765023,-11.50343 41.422224,-17.76847 13.65719,-6.26503 26.94876,-13.84644 37.55054,-24.49407 10.56473,-10.61042 18.07381,-23.87941 24.27519,-37.50796 6.20138,-13.628557 11.22218,-27.775358 17.58331,-41.33009 6.36112,-13.554732 14.19936,-26.669198 25.13156,-36.900606 10.93219,-10.231407 25.27723,-17.39664 40.2502,-17.465712 15.02511,-0.06931 29.48169,7.013579 40.51817,17.209404 11.03648,10.195825 18.97387,23.315894 25.42095,36.8877 6.44707,13.571805 11.54295,27.74755 17.81921,41.399194 6.27625,13.65164 13.86161,26.93883 24.5065,37.54284 10.60619,10.56545 23.86518,18.08408 37.48369,24.30149 13.6185,6.21742 27.75469,11.26034 41.29619,17.64375 13.54149,6.3834 26.63934,14.24402 36.85107,25.19118 10.21174,10.94717 17.35428,25.29853 17.40819,40.26907 0.0541,15.02341 -7.03574,29.47225 -17.23355,40.5045 -10.19781,11.03226 -23.31576,18.96835 -36.88494,25.41686 -13.56918,6.4485 -27.7416,11.54824 -41.38955,17.82831 -13.64795,6.28007 -26.93079,13.86907 -37.5311,24.51516 -10.56321,10.60883 -18.07991,23.86901 -24.29633,37.48829 -6.21642,13.61928 -11.25919,27.75582 -17.6431,41.2974 -6.38392,13.54157 -14.24573,26.63915 -25.19415,36.84997 -10.94842,10.21081 -25.30107,17.35166 -40.27191,17.40348 z"
       id="path1993" />
    <circle
       style="display:inline;fill-opacity:1;stroke:none;stroke-width:8;stroke-dasharray:none;stroke-opacity:1;paint-order:stroke fill markers"
       id="path2771"
       cy="282.89825"
       cx="231.70616"
       r="35.820457" />
    <circle
       style="fill-opacity:1;stroke:none;stroke-width:8;stroke-dasharray:none;stroke-opacity:1;paint-order:stroke fill markers"
       id="path9359"
       cx="287.2438"
       cy="251.52559"
       r="19.103819" />
    <circle
       style="display:inline;fill-opacity:1;stroke:none;stroke-width:4.63405;stroke-dasharray:none;stroke-opacity:1;paint-order:stroke fill markers"
       id="path9359-0"
       cx="250.75697"
       cy="215.03874"
       r="11.065998" />
  </g>
  <g
     id="layer2"
     style="display:none"
     transform="translate(-5.1255512,-5.1251822)">
    <path
       style="fill:#ff0000;fill-opacity:1;stroke-width:1.17549;stroke-dasharray:none;stroke-opacity:1"
       d="m 103.49597,255.57033 -88.370272,0.85934"
       id="path1636-6-7-5" />
    <path
       style="fill:#ff0000;fill-opacity:1;stroke-width:1.17549;stroke-dasharray:none;stroke-opacity:1"
       d="m 496.8743,255.57033 -88.37027,0.85934"
       id="path1636-6-7-5-3" />
    <path
       style="fill:#ff0000;fill-opacity:1;stroke-width:1.17549;stroke-dasharray:none;stroke-opacity:1"
       d="M 256.42967,103.49597 255.57033,15.125702"
       id="path1636-6-7-5-3-5" />
    <path
       style="fill:#ff0000;fill-opacity:1;stroke-width:1.17549;stroke-dasharray:none;stroke-opacity:1"
       d="M 85.839904,85.839907 148.33007,148.33007"
       id="path1636-6-7-5-3-5-2" />
    <path
       style="fill:#ff0000;fill-opacity:1;stroke-width:1.17549;stroke-dasharray:none;stroke-opacity:1"
       d="m 363.83516,363.83516 62.49016,62.49016"
       id="path1636-6-7-5-3-5-2-1" />
    <path
       style="fill:#ff0000;fill-opacity:1;stroke-width:1.17549;stroke-dasharray:none;stroke-opacity:1"
       d="M 363.83516,148.16484 426.32532,85.67468"
       id="path1636-6-7-5-3-5-2-1-2" />
    <path
       style="fill:#ff0000;fill-opacity:1;stroke-width:1.17549;stroke-dasharray:none;stroke-opacity:1"
       d="m 85.67468,426.32532 62.49016,-62.49016"
       id="path1636-6-7-5-3-5-2-1-2-7" />
    <path
       style="fill:#ff0000;fill-opacity:1;stroke-width:1.17549;stroke-dasharray:none;stroke-opacity:1"
       d="m 256.42967,496.8743 -0.85934,-88.37027"
       id="path1636-6-7-5-3-5-6" />
  </g>
</svg>
